<svg xmlns="http://www.w3.org/2000/svg" viewBox="0 0 480.031 480.031"><path d="M 315.27148 0 C 305.65383 -0.057658936 294.95364 6.5556094 282.7832 20.029297 C 279.8222 23.308297 280.08037 28.367125 283.35938 31.328125 C 286.63837 34.289125 291.6962 34.032906 294.6582 30.753906 C 305.8692 18.340906 313.47603 15.181188 316.58203 16.242188 C 321.56903 17.948187 329.34956 35.033328 323.10156 87.486328 C 311.67656 183.40533 261.98419 328.67553 212.24219 411.51953 C 185.05219 456.80353 168.43527 465.5458 163.44727 463.8418 C 161.19627 463.0718 159.00836 459.49711 157.44336 454.03711 C 156.22636 449.78911 151.79783 447.33578 147.54883 448.55078 C 143.30183 449.76778 140.8445 454.19731 142.0625 458.44531 C 145.2235 469.47331 150.67653 476.38247 158.26953 478.98047 C 183.08253 487.46647 212.33294 442.45381 225.96094 419.75781 C 276.80594 335.07581 327.21094 187.81795 338.96094 89.626953 C 389.26594 122.78895 420.04102 179.33992 420.04102 240.04492 C 420.04102 328.63892 354.06236 405.19795 266.56836 418.12695 C 262.19736 418.77295 259.17627 422.83898 259.82227 427.20898 C 260.46927 431.58798 264.54525 434.59813 268.90625 433.95312 C 364.79725 419.78312 436.03906 337.10192 436.03906 240.04492 C 436.03906 171.14792 399.62945 107.17903 340.68945 71.832031 C 343.71445 30.217031 337.37272 6.4435156 321.76172 1.1035156 C 319.65272 0.38201562 317.49094 0.013305908 315.27148 0 z M 241.40625 43.890625 C 135.85267 43.022539 43.990234 128.76078 43.990234 240.04297 C 43.990234 328.81897 102.63911 402.33311 181.03711 427.03711 C 185.24911 428.36211 189.74522 426.02855 191.07422 421.81055 C 192.40222 417.59655 190.06166 413.10339 185.84766 411.77539 C 110.56866 388.05539 59.990234 319.04197 59.990234 240.04297 C 59.990234 121.03297 174.32294 33.989781 289.58594 66.925781 C 293.83794 68.139781 298.26061 65.679641 299.47461 61.431641 C 300.68861 57.182641 298.22847 52.756969 293.98047 51.542969 C 276.31741 46.495375 258.67865 44.032675 241.40625 43.890625 z M 186.94141 117.19922 C 185.90273 117.23208 184.85456 117.46939 183.85156 117.93164 C 183.38956 118.14464 182.92875 118.35917 182.46875 118.57617 C 178.47775 120.47117 176.77788 125.24238 178.67188 129.23438 C 180.57587 133.24638 185.35412 134.91625 189.32812 133.03125 C 189.73212 132.83925 190.13988 132.64989 190.54688 132.46289 C 194.55988 130.61389 196.31384 125.86161 194.46484 121.84961 C 193.07809 118.83911 190.05742 117.10064 186.94141 117.19922 z M 152.5918 140.93359 C 150.5448 140.89347 148.48362 141.63306 146.89062 143.16406 C 125.73562 163.50406 112.07472 189.49055 107.38672 218.31055 C 106.67772 222.67155 109.63705 226.78319 113.99805 227.49219 C 118.35805 228.20119 122.46969 225.24286 123.17969 220.88086 C 127.30769 195.50586 139.34147 172.62022 157.98047 154.69922 C 161.16547 151.63722 161.26317 146.57272 158.20117 143.38672 C 156.67017 141.79422 154.6388 140.97372 152.5918 140.93359 z"></path></svg>